<svg xmlns="http://www.w3.org/2000/svg" viewBox="0 0 32 32">
  <rect width="32" height="32" rx="6.5" fill="#1f1a16"/>
  <clipPath id="c"><rect width="32" height="32" rx="6.5"/></clipPath>
  <g clip-path="url(#c)">
    <mask id="label">
      <rect width="32" height="32" fill="#fff"/>
      <path d="M7.3 21.6 L7.3 10.6 L11.4 19.4 L15.5 10.6 L15.5 21.6" stroke="#000" stroke-width="5.6" fill="none" stroke-linejoin="round" stroke-linecap="round"/>
      <path d="M18.9 21.6 L18.9 10.6 L24.5 10.6" stroke="#000" stroke-width="5.6" fill="none" stroke-linejoin="round" stroke-linecap="round"/>
      <path d="M18.9 15.8 L23.4 15.8" stroke="#000" stroke-width="5.6" fill="none" stroke-linejoin="round" stroke-linecap="round"/>
    </mask>
    <g mask="url(#label)">
      <path d="M42.42 17 C42.83 18.29 43.05 19.71 43.02 21.05 C42.99 22.4 42.71 23.81 42.24 25.08 C41.76 26.36 41.02 27.61 40.16 28.7 C39.3 29.79 38.21 30.79 37.08 31.62 C35.95 32.46 34.65 33.15 33.37 33.72 C32.1 34.29 30.74 34.7 29.44 35.04 C28.14 35.37 26.83 35.57 25.58 35.74 C24.33 35.91 23.11 35.98 21.93 36.05 C20.75 36.11 19.62 36.13 18.5 36.14 C17.37 36.16 16.29 36.15 15.2 36.12 C14.11 36.08 13.03 36.04 11.94 35.94 C10.85 35.84 9.75 35.72 8.66 35.51 C7.58 35.3 6.47 35.04 5.41 34.68 C4.34 34.33 3.27 33.89 2.27 33.37 C1.27 32.84 0.3 32.22 -0.59 31.53 C-1.48 30.84 -2.32 30.05 -3.07 29.21 C-3.82 28.37 -4.49 27.46 -5.09 26.51 C-5.68 25.56 -6.2 24.56 -6.65 23.53 C-7.1 22.51 -7.48 21.44 -7.8 20.35 C-8.11 19.26 -8.37 18.14 -8.56 17 C-8.75 15.86 -8.88 14.68 -8.92 13.49 C-8.95 12.29 -8.93 11.06 -8.78 9.83 C-8.62 8.61 -8.39 7.34 -7.99 6.13 C-7.6 4.91 -7.09 3.68 -6.42 2.55 C-5.75 1.42 -4.92 0.31 -3.97 -0.64 C-3.02 -1.59 -1.9 -2.47 -0.71 -3.15 C0.48 -3.83 1.82 -4.38 3.17 -4.73 C4.51 -5.08 5.96 -5.25 7.34 -5.25 C8.72 -5.26 10.14 -5.06 11.45 -4.76 C12.76 -4.46 14.04 -3.97 15.2 -3.46 C16.36 -2.95 17.43 -2.3 18.42 -1.7 C19.41 -1.09 20.28 -0.41 21.14 0.19 C21.99 0.8 22.75 1.39 23.54 1.93 C24.34 2.47 25.09 2.95 25.92 3.42 C26.75 3.89 27.6 4.29 28.53 4.74 C29.45 5.19 30.45 5.6 31.47 6.12 C32.5 6.64 33.62 7.18 34.68 7.87 C35.75 8.55 36.88 9.32 37.86 10.23 C38.84 11.13 39.83 12.17 40.59 13.3 C41.35 14.43 42.02 15.71 42.42 17Z" fill="none" stroke="#5a4f43" stroke-width="1"/>
      <path d="M38.2 16.7 C38.54 17.78 38.73 18.96 38.7 20.08 C38.68 21.2 38.45 22.38 38.05 23.44 C37.65 24.5 37.04 25.55 36.32 26.46 C35.6 27.37 34.69 28.2 33.75 28.9 C32.8 29.59 31.72 30.17 30.66 30.65 C29.6 31.12 28.46 31.46 27.38 31.74 C26.3 32.02 25.2 32.19 24.16 32.33 C23.11 32.47 22.09 32.53 21.11 32.59 C20.13 32.64 19.18 32.66 18.25 32.67 C17.31 32.68 16.41 32.67 15.5 32.64 C14.59 32.61 13.69 32.58 12.78 32.5 C11.87 32.41 10.96 32.31 10.05 32.13 C9.14 31.96 8.22 31.75 7.33 31.45 C6.44 31.15 5.55 30.79 4.72 30.35 C3.89 29.91 3.07 29.4 2.33 28.82 C1.59 28.24 0.89 27.58 0.26 26.88 C-0.36 26.19 -0.92 25.42 -1.42 24.63 C-1.92 23.84 -2.35 23 -2.72 22.15 C-3.1 21.29 -3.41 20.4 -3.68 19.49 C-3.95 18.59 -4.16 17.65 -4.32 16.7 C-4.47 15.75 -4.58 14.77 -4.61 13.77 C-4.64 12.77 -4.63 11.75 -4.5 10.72 C-4.37 9.7 -4.17 8.64 -3.84 7.63 C-3.52 6.62 -3.09 5.59 -2.53 4.65 C-1.97 3.71 -1.28 2.78 -0.49 1.99 C0.3 1.2 1.24 0.46 2.23 -0.11 C3.22 -0.67 4.34 -1.13 5.46 -1.42 C6.58 -1.72 7.79 -1.85 8.95 -1.86 C10.1 -1.86 11.28 -1.7 12.38 -1.45 C13.47 -1.2 14.53 -0.79 15.5 -0.37 C16.47 0.06 17.36 0.6 18.18 1.11 C19.01 1.62 19.74 2.18 20.45 2.68 C21.16 3.19 21.79 3.68 22.46 4.13 C23.13 4.58 23.75 4.98 24.44 5.37 C25.14 5.76 25.84 6.1 26.62 6.47 C27.39 6.85 28.22 7.19 29.07 7.63 C29.93 8.06 30.86 8.51 31.75 9.08 C32.64 9.65 33.58 10.3 34.4 11.05 C35.22 11.81 36.04 12.67 36.67 13.61 C37.31 14.56 37.87 15.62 38.2 16.7Z" fill="none" stroke="#5a4f43" stroke-width="1"/>
      <path d="M34.33 16.3 C34.61 17.18 34.76 18.14 34.74 19.06 C34.72 19.98 34.53 20.94 34.21 21.8 C33.89 22.67 33.38 23.53 32.8 24.27 C32.21 25.01 31.47 25.69 30.7 26.26 C29.93 26.83 29.04 27.3 28.17 27.68 C27.31 28.07 26.38 28.35 25.5 28.58 C24.61 28.81 23.72 28.94 22.87 29.06 C22.01 29.17 21.18 29.22 20.38 29.27 C19.58 29.31 18.81 29.33 18.04 29.33 C17.28 29.34 16.54 29.34 15.8 29.31 C15.06 29.29 14.32 29.26 13.58 29.19 C12.84 29.13 12.09 29.04 11.35 28.9 C10.61 28.76 9.86 28.58 9.13 28.34 C8.41 28.1 7.68 27.8 7 27.44 C6.32 27.09 5.65 26.66 5.05 26.19 C4.44 25.72 3.87 25.18 3.36 24.61 C2.85 24.04 2.39 23.42 1.99 22.77 C1.58 22.13 1.23 21.45 0.92 20.75 C0.62 20.05 0.36 19.32 0.14 18.58 C-0.07 17.84 -0.25 17.08 -0.38 16.3 C-0.5 15.52 -0.59 14.72 -0.62 13.91 C-0.64 13.09 -0.63 12.26 -0.52 11.42 C-0.42 10.59 -0.26 9.72 0.01 8.9 C0.28 8.07 0.63 7.23 1.08 6.46 C1.54 5.69 2.1 4.94 2.75 4.29 C3.39 3.64 4.16 3.04 4.97 2.58 C5.78 2.12 6.69 1.74 7.61 1.51 C8.52 1.27 9.51 1.15 10.45 1.15 C11.39 1.15 12.36 1.28 13.25 1.49 C14.14 1.69 15.01 2.02 15.8 2.37 C16.59 2.72 17.32 3.16 17.99 3.57 C18.66 3.99 19.26 4.44 19.84 4.86 C20.42 5.27 20.94 5.68 21.48 6.04 C22.02 6.41 22.54 6.74 23.1 7.05 C23.67 7.37 24.24 7.65 24.87 7.95 C25.5 8.26 26.18 8.54 26.88 8.89 C27.58 9.25 28.34 9.62 29.06 10.08 C29.79 10.55 30.56 11.07 31.23 11.69 C31.9 12.3 32.57 13.01 33.09 13.78 C33.6 14.55 34.06 15.42 34.33 16.3Z" fill="none" stroke="#8d8071" stroke-width="1.05"/>
      <path d="M30.7 16 C30.91 16.69 31.03 17.45 31.02 18.17 C31 18.9 30.85 19.65 30.6 20.33 C30.34 21.02 29.95 21.69 29.48 22.27 C29.02 22.86 28.44 23.39 27.83 23.84 C27.22 24.29 26.53 24.66 25.84 24.97 C25.16 25.27 24.43 25.49 23.74 25.67 C23.04 25.85 22.34 25.96 21.66 26.05 C20.99 26.14 20.34 26.18 19.71 26.21 C19.07 26.25 18.47 26.26 17.87 26.26 C17.27 26.27 16.69 26.27 16.1 26.25 C15.51 26.23 14.94 26.21 14.35 26.15 C13.77 26.1 13.18 26.03 12.6 25.92 C12.01 25.81 11.42 25.67 10.85 25.48 C10.28 25.29 9.71 25.06 9.17 24.78 C8.63 24.49 8.11 24.16 7.63 23.79 C7.16 23.42 6.71 23 6.31 22.55 C5.9 22.1 5.54 21.61 5.22 21.1 C4.9 20.59 4.63 20.05 4.38 19.5 C4.14 18.95 3.94 18.38 3.77 17.8 C3.6 17.21 3.46 16.61 3.36 16 C3.26 15.39 3.19 14.76 3.17 14.12 C3.15 13.48 3.16 12.81 3.24 12.16 C3.33 11.5 3.45 10.82 3.66 10.17 C3.88 9.52 4.15 8.86 4.51 8.25 C4.87 7.65 5.31 7.05 5.82 6.54 C6.33 6.03 6.93 5.56 7.57 5.2 C8.21 4.83 8.93 4.54 9.65 4.35 C10.37 4.16 11.15 4.07 11.89 4.07 C12.63 4.07 13.39 4.17 14.09 4.33 C14.79 4.49 15.48 4.75 16.1 5.03 C16.72 5.3 17.3 5.65 17.83 5.98 C18.36 6.3 18.82 6.66 19.28 6.99 C19.74 7.31 20.15 7.63 20.57 7.92 C21 8.21 21.4 8.47 21.85 8.72 C22.3 8.97 22.75 9.18 23.25 9.43 C23.74 9.67 24.28 9.89 24.83 10.17 C25.38 10.45 25.97 10.74 26.55 11.1 C27.12 11.47 27.72 11.88 28.25 12.37 C28.78 12.85 29.3 13.41 29.71 14.02 C30.12 14.62 30.48 15.31 30.7 16Z" fill="none" stroke="#8d8071" stroke-width="1.05"/>
      <path d="M27.52 15.7 C27.69 16.23 27.78 16.81 27.76 17.36 C27.75 17.91 27.64 18.48 27.45 19 C27.25 19.52 26.95 20.04 26.6 20.48 C26.25 20.93 25.8 21.33 25.34 21.67 C24.88 22.02 24.34 22.3 23.82 22.53 C23.3 22.76 22.75 22.93 22.22 23.07 C21.69 23.2 21.15 23.29 20.64 23.35 C20.13 23.42 19.63 23.45 19.15 23.48 C18.67 23.51 18.2 23.52 17.75 23.52 C17.29 23.53 16.85 23.52 16.4 23.51 C15.95 23.49 15.51 23.48 15.07 23.44 C14.62 23.4 14.17 23.35 13.73 23.26 C13.29 23.17 12.83 23.07 12.4 22.92 C11.96 22.78 11.53 22.6 11.12 22.39 C10.71 22.17 10.31 21.92 9.95 21.63 C9.59 21.35 9.24 21.03 8.94 20.69 C8.63 20.35 8.36 19.97 8.11 19.58 C7.87 19.2 7.66 18.79 7.47 18.37 C7.29 17.95 7.14 17.51 7.01 17.07 C6.88 16.62 6.77 16.17 6.69 15.7 C6.62 15.23 6.56 14.75 6.55 14.26 C6.53 13.78 6.54 13.27 6.61 12.77 C6.67 12.27 6.76 11.75 6.93 11.26 C7.09 10.76 7.3 10.26 7.57 9.8 C7.84 9.34 8.18 8.88 8.57 8.49 C8.96 8.11 9.41 7.75 9.9 7.47 C10.39 7.19 10.94 6.97 11.48 6.82 C12.03 6.68 12.63 6.61 13.19 6.61 C13.75 6.61 14.33 6.69 14.87 6.81 C15.4 6.93 15.93 7.13 16.4 7.34 C16.87 7.55 17.31 7.81 17.71 8.06 C18.12 8.31 18.48 8.59 18.82 8.83 C19.17 9.08 19.48 9.33 19.81 9.54 C20.13 9.76 20.44 9.96 20.78 10.15 C21.12 10.34 21.47 10.51 21.84 10.69 C22.22 10.87 22.63 11.04 23.05 11.26 C23.47 11.47 23.92 11.69 24.36 11.97 C24.79 12.25 25.25 12.56 25.66 12.93 C26.06 13.3 26.46 13.73 26.77 14.19 C27.08 14.65 27.35 15.17 27.52 15.7Z" fill="none" stroke="#c2a892" stroke-width="1.05"/>
    </g>
    <path d="M7.3 21.6 L7.3 10.6 L11.4 19.4 L15.5 10.6 L15.5 21.6" stroke="#ebe2d4" stroke-width="2.3" fill="none" stroke-linejoin="miter" stroke-miterlimit="1.8" stroke-linecap="butt"/>
    <path d="M18.9 21.6 L18.9 10.6 L24.5 10.6" stroke="#ebe2d4" stroke-width="2.3" fill="none" stroke-linejoin="miter" stroke-miterlimit="1.8" stroke-linecap="butt"/>
    <path d="M18.9 15.8 L23.4 15.8" stroke="#ebe2d4" stroke-width="2.3" fill="none" stroke-linejoin="miter" stroke-miterlimit="1.8" stroke-linecap="butt"/>
  </g>
</svg>
